<svg xmlns="http://www.w3.org/2000/svg" width="466" height="466" viewBox="0 0 466 466">
  <defs>
    <clipPath id="screen"><circle cx="233" cy="233" r="225"/></clipPath>
    <style>
      .ui{font-family:-apple-system,BlinkMacSystemFont,"SF Pro Display","PingFang SC",sans-serif}
      .num{font-family:"Arial Black","SF Pro Display",sans-serif;font-variant-numeric:tabular-nums}
    </style>
  </defs>
  <circle cx="233" cy="233" r="231" fill="#050505"/>
  <g clip-path="url(#screen)" class="ui">
    <circle cx="233" cy="233" r="225" fill="#f8f5ed"/>
    <circle cx="380" cy="138" r="170" fill="#ff3b30"/>

    <text x="132" y="69" font-size="25" font-weight="750" fill="#050505">专注</text>
    <text x="132" y="99" font-size="25" font-weight="750" fill="#050505">进行中</text>
    <rect x="132" y="115" width="53" height="4" fill="#050505"/>

    <text x="31" y="253" class="num" font-size="112" font-weight="800" fill="#050505">01:42</text>
    <text x="393" y="235" text-anchor="middle" class="num" font-size="39" font-weight="800" fill="#050505">18</text>
    <rect x="371" y="249" width="44" height="5" fill="#050505"/>

    <g transform="translate(60 290)">
      <rect width="175" height="50" rx="25" fill="#050505"/>
      <circle cx="27" cy="25" r="16" fill="#f8f5ed"/>
      <text x="27" y="32" text-anchor="middle" class="num" font-size="20" font-weight="800" fill="#050505">A</text>
      <text x="103.5" y="33" text-anchor="middle" font-size="21" font-weight="650" fill="#f8f5ed">正计时</text>
    </g>
    <g transform="translate(233 290)">
      <rect width="175" height="50" rx="25" fill="#f8f5ed" stroke="#ffc400" stroke-width="2"/>
      <circle cx="27" cy="25" r="16" fill="#ffc400"/>
      <text x="27" y="32" text-anchor="middle" class="num" font-size="20" font-weight="800" fill="#050505">B</text>
      <text x="103.5" y="33" text-anchor="middle" font-size="21" font-weight="650" fill="#050505">25分钟</text>
    </g>

    <g transform="translate(114 352)">
      <rect width="166" height="52" rx="26" fill="#050505"/>
      <circle cx="26" cy="26" r="15" fill="#f8f5ed"/>
      <text x="26" y="33" text-anchor="middle" class="num" font-size="18" font-weight="800" fill="#050505">A</text>
      <text x="108" y="35" text-anchor="middle" font-size="24" font-weight="750" fill="#f8f5ed">暂停</text>
    </g>
    <g transform="translate(290 352)">
      <rect width="62" height="52" rx="26" fill="#f8f5ed" stroke="#050505" stroke-width="2"/>
      <text x="31" y="33" text-anchor="middle" font-size="14" font-weight="650" fill="#050505">结束</text>
    </g>
  </g>
</svg>
